<svg width="32" height="32" viewBox="0 0 32 32" fill="none" xmlns="http://www.w3.org/2000/svg">
<g id="data-semantic">
<path id="Union" fill-rule="evenodd" clip-rule="evenodd" d="M2.75 5C2.75 4.0335 3.5335 3.25 4.5 3.25H22.5C23.4665 3.25 24.25 4.0335 24.25 5V11C24.25 11.0849 24.244 11.1683 24.2323 11.25H28.5C29.4665 11.25 30.25 12.0335 30.25 13V19C30.25 19.9665 29.4665 20.75 28.5 20.75H24.2323C24.244 20.8317 24.25 20.9151 24.25 21V27C24.25 27.9665 23.4665 28.75 22.5 28.75H4.5C3.5335 28.75 2.75 27.9665 2.75 27V21C2.75 20.0335 3.5335 19.25 4.5 19.25H8.76772C8.75604 19.1683 8.75 19.0849 8.75 19V13C8.75 12.9151 8.75604 12.8317 8.76772 12.75H4.5C3.5335 12.75 2.75 11.9665 2.75 11V5ZM10.5 19.25H22.5H28.5C28.6381 19.25 28.75 19.1381 28.75 19V13C28.75 12.8619 28.6381 12.75 28.5 12.75H22.5H10.5C10.3619 12.75 10.25 12.8619 10.25 13V19C10.25 19.1381 10.3619 19.25 10.5 19.25ZM22.5 20.75H10.5H4.5C4.36193 20.75 4.25 20.8619 4.25 21V27C4.25 27.1381 4.36193 27.25 4.5 27.25H22.5C22.6381 27.25 22.75 27.1381 22.75 27V21C22.75 20.8619 22.6381 20.75 22.5 20.75ZM22.75 11C22.75 11.1381 22.6381 11.25 22.5 11.25H10.5H4.5C4.36193 11.25 4.25 11.1381 4.25 11V5C4.25 4.86193 4.36193 4.75 4.5 4.75H22.5C22.6381 4.75 22.75 4.86193 22.75 5V11Z" fill="#1A6CE7"/>
</g>
</svg>
