<svg width="16" height="16" viewBox="0 0 16 16" fill="none" xmlns="http://www.w3.org/2000/svg">
<path d="M5.79967 10.5998L3.19967 7.99981L5.79967 5.39981C6.05967 5.13981 6.05967 4.72648 5.79967 4.46648C5.53967 4.20648 5.12633 4.20648 4.86633 4.46648L1.80633 7.52648C1.54633 7.78648 1.54633 8.20648 1.80633 8.46648L4.86633 11.5331C5.12633 11.7931 5.53967 11.7931 5.79967 11.5331C6.05967 11.2731 6.05967 10.8598 5.79967 10.5998ZM10.1997 10.5998L12.7997 7.99981L10.1997 5.39981C9.93967 5.13981 9.93967 4.72648 10.1997 4.46648C10.4597 4.20648 10.873 4.20648 11.133 4.46648L14.193 7.52648C14.453 7.78648 14.453 8.20648 14.193 8.46648L11.133 11.5331C10.873 11.7931 10.4597 11.7931 10.1997 11.5331C9.93967 11.2731 9.93967 10.8598 10.1997 10.5998Z" fill="#5D6A85"/>
</svg>
