<svg width="16" height="16" viewBox="0 0 16 16" fill="none" xmlns="http://www.w3.org/2000/svg">
<path d="M8.00313 5.6C8.44495 5.6 8.80312 5.24183 8.80312 4.8C8.80312 4.35817 8.44495 4 8.00313 4C7.5613 4 7.20312 4.35817 7.20312 4.8C7.20312 5.24183 7.5613 5.6 8.00313 5.6Z" fill="#1E252F"/>
<path d="M8.5 6.5V11.5H7.5V6.5H8.5Z" fill="#1E252F"/>
<path fill-rule="evenodd" clip-rule="evenodd" d="M8 15C11.866 15 15 11.866 15 8C15 4.13401 11.866 1 8 1C4.13401 1 1 4.13401 1 8C1 11.866 4.13401 15 8 15ZM8 14C11.3137 14 14 11.3137 14 8C14 4.68629 11.3137 2 8 2C4.68629 2 2 4.68629 2 8C2 11.3137 4.68629 14 8 14Z" fill="#1E252F"/>
</svg>
