<svg width="16" height="16" viewBox="0 0 16 16" fill="none" xmlns="http://www.w3.org/2000/svg">
<path fill-rule="evenodd" clip-rule="evenodd" d="M1.5 8C1.5 5.79086 3.29086 4 5.5 4C6.06919 4 6.61061 4.11889 7.10079 4.33318C6.11619 5.24635 5.5 6.55122 5.5 8C5.5 9.44878 6.11619 10.7536 7.10079 11.6668C6.61061 11.8811 6.06919 12 5.5 12C3.29086 12 1.5 10.2091 1.5 8ZM8 12.3311C7.26457 12.7565 6.41072 13 5.5 13C2.73858 13 0.5 10.7614 0.5 8C0.5 5.23858 2.73858 3 5.5 3C6.41072 3 7.26457 3.24349 8 3.66891C8.73543 3.24349 9.58928 3 10.5 3C13.2614 3 15.5 5.23858 15.5 8C15.5 10.7614 13.2614 13 10.5 13C9.58928 13 8.73544 12.7565 8 12.3311ZM8.89921 4.33318C9.38939 4.11888 9.93081 4 10.5 4C12.7091 4 14.5 5.79086 14.5 8C14.5 10.2091 12.7091 12 10.5 12C9.93081 12 9.38939 11.8811 8.89921 11.6668C9.88381 10.7536 10.5 9.44878 10.5 8C10.5 6.55122 9.88381 5.24635 8.89921 4.33318ZM8 4.87731C8.91446 5.61038 9.5 6.73681 9.5 8C9.5 9.26319 8.91446 10.3896 8 11.1227C7.08554 10.3896 6.5 9.26319 6.5 8C6.5 6.73681 7.08554 5.61038 8 4.87731Z" fill="#5D6A85"/>
</svg>
