<svg width="16" height="16" viewBox="0 0 16 16" fill="none" xmlns="http://www.w3.org/2000/svg">
<path d="M2.66666 7C2.11332 7 1.66666 7.44667 1.66666 8C1.66666 8.55333 2.11332 9 2.66666 9C3.21999 9 3.66666 8.55333 3.66666 8C3.66666 7.44667 3.21999 7 2.66666 7ZM2.66666 3C2.11332 3 1.66666 3.44667 1.66666 4C1.66666 4.55333 2.11332 5 2.66666 5C3.21999 5 3.66666 4.55333 3.66666 4C3.66666 3.44667 3.21999 3 2.66666 3ZM2.66666 11C2.11332 11 1.66666 11.4533 1.66666 12C1.66666 12.5467 2.11999 13 2.66666 13C3.21332 13 3.66666 12.5467 3.66666 12C3.66666 11.4533 3.21999 11 2.66666 11ZM5.33332 12.6667H13.3333C13.7 12.6667 14 12.3667 14 12C14 11.6333 13.7 11.3333 13.3333 11.3333H5.33332C4.96666 11.3333 4.66666 11.6333 4.66666 12C4.66666 12.3667 4.96666 12.6667 5.33332 12.6667ZM5.33332 8.66667H13.3333C13.7 8.66667 14 8.36667 14 8C14 7.63333 13.7 7.33333 13.3333 7.33333H5.33332C4.96666 7.33333 4.66666 7.63333 4.66666 8C4.66666 8.36667 4.96666 8.66667 5.33332 8.66667ZM4.66666 4C4.66666 4.36667 4.96666 4.66667 5.33332 4.66667H13.3333C13.7 4.66667 14 4.36667 14 4C14 3.63333 13.7 3.33333 13.3333 3.33333H5.33332C4.96666 3.33333 4.66666 3.63333 4.66666 4Z" fill="#5D6A85"/>
</svg>
