<svg width="48" height="48" viewBox="0 0 48 48" fill="none" xmlns="http://www.w3.org/2000/svg">
<path fill-rule="evenodd" clip-rule="evenodd" d="M22.998 3.01245V11.6791H24.998V3.01245H22.998ZM31.9094 24.0001L42.0592 24.0001V36.4714C42.0592 38.5578 40.3678 40.2491 38.2814 40.2491L9.77777 40.2491C7.69136 40.2491 6 38.5577 6 36.4713V24L16.1003 24V24.9082C16.1003 29.2737 19.6393 32.8127 24.0048 32.8127C28.3703 32.8127 31.9094 29.2738 31.9094 24.9082V24.0001ZM44.0592 36.4714V23.0001C44.0592 22.4478 43.6115 22.0001 43.0592 22.0001L29.94 22.0001C29.9231 22.0001 29.9094 22.0138 29.9094 22.0307V24.9082C29.9094 28.1692 27.2658 30.8127 24.0048 30.8127C20.7438 30.8127 18.1003 28.1691 18.1003 24.9082V22.0305C18.1003 22.0136 18.0866 21.9999 18.0697 21.9999L4.99999 22C4.44771 22 4 22.4478 4 23V36.4713C4 39.6623 6.58679 42.2491 9.77776 42.2491L38.2814 42.2491C41.4724 42.2491 44.0592 39.6623 44.0592 36.4714ZM39.1495 9.49734L33.3717 15.2751L31.9575 13.8609L37.7353 8.08313L39.1495 9.49734ZM14.6244 15.2751L8.8466 9.49734L10.2608 8.08313L16.0386 13.8609L14.6244 15.2751Z" fill="#BDC4D5"/>
</svg>
