<svg width="16" height="16" viewBox="0 0 16 16" fill="none" xmlns="http://www.w3.org/2000/svg">
<path d="M10.362 2.4845C9.1704 1.97418 7.84554 1.86351 6.58574 2.16906C5.32595 2.47462 4.199 3.17996 3.37357 4.17951C2.54815 5.17906 2.06864 6.41906 2.00683 7.71391C1.94502 9.00875 2.30422 10.2888 3.03068 11.3624C3.75714 12.4361 4.81178 13.2455 6.03674 13.6697C7.26169 14.0939 8.59108 14.1099 9.82591 13.7154C11.0607 13.3209 12.1346 12.5371 12.8868 11.4813L13.1769 11.0741L12.3624 10.4939L12.0723 10.9011C11.4455 11.7809 10.5506 12.4341 9.52159 12.7629C8.49257 13.0916 7.38474 13.0782 6.36395 12.7248C5.34315 12.3713 4.46429 11.6967 3.8589 10.802C3.25352 9.90732 2.95418 8.84062 3.00569 7.76159C3.0572 6.68255 3.45679 5.64922 4.14465 4.81626C4.8325 3.9833 5.77163 3.39551 6.82145 3.14089C7.87128 2.88626 8.97534 2.97848 9.96837 3.40375C10.7769 3.75001 11.4764 4.3019 12 5H9.5V6H13C13.2761 6 13.5 5.77614 13.5 5.5V2H12.5V4.03136C11.9142 3.36716 11.1852 2.83703 10.362 2.4845Z" fill="#5D6A85"/>
</svg>
