<svg width="16" height="16" viewBox="0 0 16 16" fill="none" xmlns="http://www.w3.org/2000/svg">
<path d="M5 10H11V9H5V10Z" fill="#5D6A85"/>
<path fill-rule="evenodd" clip-rule="evenodd" d="M15 11V7.73985C15 7.14307 14.7865 6.56598 14.3981 6.11287L12.4783 3.87302C12.0033 3.31891 11.3099 3 10.5801 3H5.41987C4.69006 3 3.99668 3.31891 3.52173 3.87302L1.60186 6.11287C1.21348 6.56598 1 7.14307 1 7.73985V11C1 12.1046 1.89543 13 3 13H13C14.1046 13 15 12.1046 15 11ZM5.41987 4C4.98198 4 4.56596 4.19134 4.28099 4.52381L3.01568 6H12.9843L11.719 4.52381C11.434 4.19134 11.018 4 10.5801 4H5.41987ZM2 8C2 7.44772 2.44772 7 3 7H13C13.5523 7 14 7.44772 14 8V11C14 11.5523 13.5523 12 13 12H3C2.44772 12 2 11.5523 2 11V8Z" fill="#5D6A85"/>
</svg>
