<svg width="16" height="16" viewBox="0 0 16 16" fill="none" xmlns="http://www.w3.org/2000/svg">
<path d="M7.92376 10.3995C7.48193 10.3995 7.12376 10.7577 7.12376 11.1995C7.12376 11.6413 7.48193 11.9995 7.92376 11.9995C8.36558 11.9995 8.72376 11.6413 8.72376 11.1995C8.72376 10.7577 8.36558 10.3995 7.92376 10.3995Z" fill="#653E03"/>
<path d="M7.42688 9.49951L7.42688 4.99951H8.42688L8.42688 9.49951H7.42688Z" fill="#653E03"/>
<path fill-rule="evenodd" clip-rule="evenodd" d="M5.83237 2.75265C6.79444 1.08505 9.20123 1.08506 10.1633 2.75265L14.7774 10.7504C15.7389 12.4171 14.5361 14.4997 12.6119 14.4997H3.38373C1.45959 14.4997 0.25673 12.4171 1.21827 10.7504L5.83237 2.75265ZM9.29711 3.25237C8.71987 2.25181 7.2758 2.25181 6.69856 3.25237L2.08445 11.2501C1.50753 12.2501 2.22925 13.4997 3.38373 13.4997H12.6119C13.7664 13.4997 14.4881 12.2501 13.9112 11.2501L9.29711 3.25237Z" fill="#653E03"/>
</svg>
