<svg width="64" height="465" viewBox="0 0 64 465" fill="none" xmlns="http://www.w3.org/2000/svg">
<g clip-path="url(#clip0_2540_139664)">
<path fill-rule="evenodd" clip-rule="evenodd" d="M33.1591 32.2368L32.1796 33.2163C32.0488 33.3471 31.8367 33.3471 31.706 33.2163L30.7265 32.2369C30.5957 32.1061 30.5957 31.894 30.7265 31.7633L31.706 30.7837C31.8368 30.6528 32.0489 30.6528 32.1797 30.7837L33.1591 31.7632C33.2899 31.894 33.2899 32.106 33.1591 32.2368M35.2082 31.0035L32.9393 28.7346C32.389 28.1843 31.4967 28.1843 30.9464 28.7346L28.6774 31.0037C28.127 31.554 28.127 32.4462 28.6774 32.9967L30.9462 35.2655C31.4965 35.8158 32.3888 35.8158 32.9391 35.2655L35.2082 32.9964C35.7585 32.446 35.7585 31.5537 35.2082 31.0035" fill="#29B5E8"/>
<path fill-rule="evenodd" clip-rule="evenodd" d="M28.1726 16C27.0554 16 26.1496 16.9058 26.1496 18.023V22.2119L22.4945 20.1016C21.5269 19.5429 20.2897 19.8744 19.731 20.8421C19.1724 21.8096 19.5039 23.0469 20.4715 23.6055L26.8888 27.3105C27.238 27.5977 27.6852 27.7702 28.1726 27.7702C29.2899 27.7702 30.1956 26.8644 30.1956 25.7472V18.023C30.1956 16.9058 29.2899 16 28.1726 16" fill="#29B5E8"/>
<path fill-rule="evenodd" clip-rule="evenodd" d="M26.5822 32.7677C26.5947 32.7374 26.607 32.7071 26.618 32.6762C26.6302 32.6416 26.641 32.6069 26.6512 32.572C26.6592 32.5451 26.667 32.5185 26.6738 32.4914C26.6832 32.454 26.6911 32.4166 26.6982 32.3789C26.7033 32.3523 26.7081 32.3258 26.7121 32.2991C26.7176 32.2623 26.7219 32.2256 26.7253 32.1886C26.728 32.1593 26.7303 32.13 26.7319 32.1006C26.7335 32.0671 26.7341 32.0336 26.7341 32C26.7341 31.9665 26.7335 31.9331 26.7319 31.8995C26.7303 31.87 26.728 31.8408 26.7253 31.8115C26.7219 31.7745 26.7176 31.7379 26.7121 31.7009C26.7081 31.6742 26.7033 31.6477 26.6982 31.6212C26.6911 31.5836 26.6832 31.5461 26.6738 31.5087C26.667 31.4817 26.6592 31.4549 26.6512 31.4282C26.641 31.3932 26.6302 31.3585 26.618 31.3239C26.607 31.293 26.5947 31.2626 26.5822 31.2323C26.5702 31.2031 26.5584 31.1741 26.5449 31.1453C26.5279 31.1089 26.509 31.0733 26.4899 31.0379C26.4809 31.0215 26.474 31.0047 26.4647 30.9885C26.4611 30.9823 26.4567 30.9768 26.453 30.9706C26.4307 30.9328 26.4063 30.8963 26.3815 30.86C26.3682 30.8404 26.3554 30.8202 26.3415 30.8013C26.3175 30.7688 26.2915 30.7377 26.2656 30.7064C26.248 30.6854 26.2312 30.6637 26.213 30.6435C26.1903 30.6185 26.1658 30.595 26.1418 30.5709C26.1177 30.5469 26.0942 30.5223 26.0692 30.4997C26.0489 30.4816 26.0273 30.4647 26.0063 30.4472C25.975 30.4212 25.944 30.3951 25.9114 30.3712C25.8924 30.3573 25.8723 30.3445 25.8527 30.3312C25.8164 30.3064 25.7799 30.282 25.7421 30.2597C25.7359 30.2561 25.7304 30.2517 25.7242 30.2481L19.0349 26.386C18.0672 25.8273 16.83 26.1589 16.2714 27.1264C15.7127 28.0941 16.0442 29.3313 17.0119 29.8899L20.6667 32L17.0119 34.1102C16.0442 34.6688 15.7127 35.9061 16.2714 36.8736C16.83 37.8412 18.0672 38.1727 19.0349 37.6141L25.7242 33.752C25.7304 33.7483 25.7359 33.744 25.7421 33.7403C25.7799 33.7181 25.8164 33.6936 25.8527 33.6689C25.8723 33.6555 25.8924 33.6429 25.9114 33.6288C25.944 33.6049 25.975 33.5789 26.0063 33.5529C26.0273 33.5355 26.0489 33.5186 26.0692 33.5003C26.0941 33.4777 26.1177 33.4533 26.1417 33.4292C26.1658 33.4052 26.1903 33.3815 26.213 33.3564C26.2312 33.3364 26.2479 33.3147 26.2655 33.2938C26.2915 33.2626 26.3175 33.2314 26.3415 33.1987C26.3554 33.1798 26.3681 33.1597 26.3814 33.1402C26.4063 33.1037 26.4307 33.0672 26.4531 33.0295C26.4568 33.0233 26.4611 33.0178 26.4647 33.0115C26.474 32.9954 26.4809 32.9786 26.4898 32.9623C26.509 32.9267 26.5279 32.8912 26.5449 32.8546C26.5584 32.826 26.5702 32.7968 26.5822 32.7677" fill="#29B5E8"/>
<path fill-rule="evenodd" clip-rule="evenodd" d="M28.1726 36.2299C27.6852 36.2299 27.2381 36.4024 26.8888 36.6895L20.4715 40.3946C19.5039 40.9532 19.1724 42.1904 19.731 43.1581C20.2897 44.1256 21.5269 44.4572 22.4945 43.8986L26.1496 41.7882V45.9771C26.1496 47.0943 27.0554 48.0001 28.1726 48.0001C29.2899 48.0001 30.1956 47.0943 30.1956 45.9771V38.2529C30.1956 37.1357 29.2899 36.2299 28.1726 36.2299" fill="#29B5E8"/>
<path fill-rule="evenodd" clip-rule="evenodd" d="M43.414 40.3946L36.9967 36.6895C36.6474 36.4024 36.2003 36.2299 35.7129 36.2299C34.5956 36.2299 33.6899 37.1357 33.6899 38.2529V45.9771C33.6899 47.0943 34.5956 48.0001 35.7129 48.0001C36.8301 48.0001 37.7359 47.0943 37.7359 45.9771V41.7882L41.391 43.8985C42.3586 44.4572 43.5959 44.1256 44.1545 43.1581C44.7132 42.1904 44.3816 40.9532 43.414 40.3946" fill="#29B5E8"/>
<path fill-rule="evenodd" clip-rule="evenodd" d="M46.8736 34.1101L43.2188 32.0001L46.8736 29.8899C47.8412 29.3313 48.1728 28.094 47.6141 27.1265C47.0555 26.1589 45.8182 25.8274 44.8506 26.386L38.1613 30.2481C38.1551 30.2517 38.1496 30.2561 38.1434 30.2597C38.1056 30.282 38.0691 30.3065 38.0327 30.3312C38.0132 30.3445 37.9931 30.3572 37.9741 30.3712C37.9415 30.3952 37.9104 30.4212 37.8792 30.4471C37.8582 30.4646 37.8366 30.4815 37.8163 30.4997C37.7912 30.5223 37.7678 30.5468 37.7437 30.5709C37.7197 30.5949 37.6952 30.6185 37.6724 30.6436C37.6543 30.6638 37.6375 30.6854 37.6199 30.7064C37.594 30.7376 37.568 30.7687 37.544 30.8014C37.5301 30.8203 37.5174 30.8403 37.504 30.8599C37.4792 30.8963 37.4548 30.9328 37.4325 30.9705C37.4288 30.9768 37.4244 30.9822 37.4208 30.9886C37.4115 31.0048 37.4045 31.0215 37.3956 31.0379C37.3765 31.0734 37.3576 31.1088 37.3406 31.1454C37.3271 31.174 37.3153 31.2032 37.3033 31.2323C37.2908 31.2626 37.2785 31.2929 37.2675 31.3238C37.2552 31.3584 37.2446 31.3932 37.2343 31.4281C37.2263 31.4549 37.2185 31.4816 37.2118 31.5087C37.2023 31.5461 37.1944 31.5835 37.1873 31.6212C37.1822 31.6478 37.1774 31.6743 37.1734 31.7009C37.1679 31.7378 37.1636 31.7746 37.1602 31.8115C37.1575 31.8407 37.1552 31.87 37.1536 31.8995C37.152 31.933 37.1514 31.9665 37.1514 32.0001C37.1514 32.0335 37.152 32.067 37.1536 32.1006C37.1552 32.1301 37.1575 32.1592 37.1602 32.1887C37.1636 32.2255 37.1679 32.2622 37.1734 32.2991C37.1774 32.3259 37.1822 32.3523 37.1873 32.3788C37.1944 32.4165 37.2023 32.454 37.2118 32.4914C37.2185 32.5184 37.2263 32.5451 37.2343 32.5719C37.2446 32.6069 37.2552 32.6415 37.2675 32.6761C37.2785 32.7071 37.2908 32.7374 37.3033 32.7677C37.3153 32.7969 37.3271 32.8259 37.3406 32.8547C37.3576 32.8912 37.3765 32.9268 37.3957 32.9624C37.4045 32.9786 37.4115 32.9954 37.4208 33.0116C37.4244 33.0177 37.4288 33.0233 37.4324 33.0295C37.4548 33.0672 37.4792 33.1038 37.504 33.1401C37.5174 33.1597 37.5301 33.1798 37.544 33.1987C37.568 33.2313 37.594 33.2625 37.6201 33.2938C37.6376 33.3147 37.6543 33.3363 37.6724 33.3565C37.6952 33.3815 37.7197 33.4051 37.7438 33.4292C37.7678 33.4532 37.7913 33.4777 37.8163 33.5003C37.8366 33.5185 37.8582 33.5354 37.8792 33.5528C37.9104 33.5789 37.9415 33.6049 37.9741 33.6289C37.9931 33.6428 38.0132 33.6555 38.0327 33.6689C38.0691 33.6937 38.1056 33.718 38.1434 33.7404C38.1496 33.7441 38.1551 33.7483 38.1613 33.752L44.8506 37.6141C45.8182 38.1728 47.0555 37.8412 47.6141 36.8736C48.1728 35.906 47.8412 34.6688 46.8736 34.1101" fill="#29B5E8"/>
<path fill-rule="evenodd" clip-rule="evenodd" d="M44.1545 20.842V20.842C43.5959 19.8745 42.3587 19.5429 41.391 20.1015L37.7358 22.2119V18.023C37.7358 16.9057 36.8302 16 35.7128 16C34.5956 16 33.6899 16.9057 33.6899 18.023V25.7471C33.6899 26.8645 34.5956 27.7701 35.7128 27.7701C36.2003 27.7701 36.6475 27.5976 36.9967 27.3105L43.414 23.6054C44.3816 23.0469 44.7131 21.8096 44.1545 20.842" fill="#29B5E8"/>
</g>
<path d="M32 86V98M38 92H26" stroke="#5D6A85" stroke-width="2"/>
<rect x="12" y="120" width="40" height="1" fill="#D5DAE4"/>
<path fill-rule="evenodd" clip-rule="evenodd" d="M30.8 141.65C31.5111 141.117 32.4889 141.117 33.2 141.65L37.8 145.1C38.5554 145.667 39 146.556 39 147.5V154C39 155.105 38.1046 156 37 156H34.0794C33.4832 156 33 155.517 33 154.921V152C33 151.448 32.5523 151 32 151C31.4477 151 31 151.448 31 152V154.921C31 155.517 30.5168 156 29.9206 156H27C25.8954 156 25 155.105 25 154V147.5C25 146.556 25.4446 145.667 26.2 145.1L30.8 141.65ZM32 143.25L27.4 146.7C27.1482 146.889 27 147.185 27 147.5V154H29V152C29 150.343 30.3431 149 32 149C33.6569 149 35 150.343 35 152V154H37V147.5C37 147.185 36.8518 146.889 36.6 146.7L32 143.25Z" fill="#5D6A85"/>
<g clip-path="url(#clip1_2540_139664)">
<path fill-rule="evenodd" clip-rule="evenodd" d="M30 181C26.6863 181 24 183.686 24 187C24 190.314 26.6863 193 30 193C31.2184 193 32.3521 192.637 33.2985 192.013L37.9426 196.657L39.3568 195.243L34.7632 190.649C35.5389 189.638 36 188.373 36 187C36 183.686 33.3137 181 30 181ZM26 187C26 184.791 27.7909 183 30 183C32.2091 183 34 184.791 34 187C34 189.209 32.2091 191 30 191C27.7909 191 26 189.209 26 187Z" fill="#5D6A85"/>
</g>
<path d="M28.5355 232.364L27.1213 230.95L29.2426 228.828L27.1213 226.707L28.5355 225.293L31.364 228.121C31.7545 228.512 31.7545 229.145 31.364 229.535L28.5355 232.364Z" fill="#5D6A85"/>
<path d="M32 232.5H36V230.5H32V232.5Z" fill="#5D6A85"/>
<path fill-rule="evenodd" clip-rule="evenodd" d="M24 224C24 222.343 25.3431 221 27 221H37C38.6569 221 40 222.343 40 224V234C40 235.657 38.6569 237 37 237H27C25.3431 237 24 235.657 24 234V224ZM27 223C26.4477 223 26 223.448 26 224V234C26 234.552 26.4477 235 27 235H37C37.5523 235 38 234.552 38 234V224C38 223.448 37.5523 223 37 223H27Z" fill="#5D6A85"/>
<path d="M27 264.207V273M37 264V273" stroke="#5D6A85" stroke-width="2"/>
<path d="M37 264.3C37 266.086 34.5 266.6 32 266.6C29.5 266.6 27 266.086 27 264.3C27 262.575 29.5 262 32 262C34.5 262 37 262.514 37 264.3Z" stroke="#5D6A85" stroke-width="2"/>
<path d="M37 273C37 275 34.5 276 32 276C29.5 276 27 275 27 273" stroke="#5D6A85" stroke-width="2"/>
<path d="M35.0172 307.061C34.4786 305.529 33.2795 304.431 31.5625 304.431C28.4163 304.431 27.4681 307.239 27.649 308.803C26.3606 308.803 25 309.712 25 311.426C25 312.874 26.1753 314.049 27.625 314.049H35.5C37.433 314.049 39 312.483 39 310.551C39 307.544 36.2577 306.971 35.0172 307.061Z" stroke="#5D6A85" stroke-width="2" stroke-linejoin="round"/>
<rect x="12" y="333" width="40" height="32" rx="8" fill="#D6E6FF"/>
<path d="M35 346.997C35.0001 347.218 34.9124 347.43 34.7562 347.586C34.6 347.742 34.3881 347.83 34.1672 347.831C33.2831 347.831 32.4354 348.183 31.8109 348.808C31.1862 349.434 30.8354 350.282 30.836 351.166C30.8362 351.387 30.7486 351.599 30.5924 351.755C30.4362 351.912 30.2243 352 30.0033 352C29.7824 352 29.5703 351.912 29.4138 351.756C29.2574 351.6 29.1695 351.388 29.1695 351.167C29.1689 350.283 28.8171 349.436 28.1916 348.811C27.5659 348.186 26.718 347.836 25.8339 347.836C25.6129 347.836 25.4009 347.749 25.2445 347.592C25.0881 347.436 25.0002 347.224 25 347.003C24.9999 346.782 25.0875 346.57 25.2437 346.414C25.3999 346.258 25.6118 346.17 25.8328 346.169C26.7168 346.169 27.5644 345.817 28.1891 345.192C28.8139 344.566 29.1644 343.718 29.1638 342.834C29.1636 342.613 29.2513 342.401 29.4075 342.244C29.5637 342.088 29.7756 342 29.9966 342C30.2177 342 30.4296 342.088 30.586 342.244C30.7424 342.4 30.8303 342.612 30.8306 342.833C30.8312 343.717 31.1828 344.564 31.8084 345.189C32.4339 345.814 33.2821 346.164 34.166 346.164C34.3871 346.164 34.599 346.251 34.7554 346.408C34.9119 346.564 34.9998 346.776 35 346.997Z" fill="#085BD7"/>
<path d="M39 352.998C39.0001 353.131 38.9475 353.258 38.8537 353.352C38.76 353.445 38.6329 353.498 38.5004 353.498C37.9699 353.499 37.4613 353.71 37.0866 354.085C36.7117 354.46 36.5013 354.969 36.5016 355.5C36.5018 355.632 36.4492 355.76 36.3555 355.853C36.2618 355.947 36.1346 356 36.002 356C35.8695 356 35.7422 355.947 35.6483 355.854C35.5545 355.76 35.5017 355.633 35.5017 355.5C35.5014 354.97 35.2903 354.461 34.915 354.087C34.5396 353.712 34.0308 353.501 33.5003 353.502C33.3677 353.502 33.2405 353.449 33.1467 353.356C33.0529 353.262 33.0001 353.135 33 353.002C32.9999 352.869 33.0525 352.742 33.1462 352.648C33.2399 352.555 33.3671 352.502 33.4997 352.502C34.0301 352.501 34.5387 352.29 34.9135 351.915C35.2883 351.54 35.4987 351.031 35.4983 350.5C35.4982 350.368 35.5508 350.241 35.6445 350.147C35.7382 350.053 35.8654 350 35.998 350C36.1306 350 36.2578 350.052 36.3516 350.146C36.4455 350.24 36.4982 350.367 36.4984 350.5C36.4987 351.03 36.7097 351.539 37.0851 351.913C37.4604 352.288 37.9693 352.499 38.4997 352.498C38.6323 352.498 38.7595 352.551 38.8533 352.644C38.9471 352.738 38.9999 352.865 39 352.998Z" fill="#085BD7"/>
<path d="M25 389H27.8L30.6 383L33.5 395L36.2 388.5H39" stroke="#5D6A85" stroke-width="2" stroke-linecap="square" stroke-linejoin="round"/>
<circle cx="31.9739" cy="427.571" r="1.57143" stroke="#5D6A85" stroke-width="2"/>
<path d="M27.9739 433.091C29.0354 432.102 30.4372 431.5 31.9739 431.5C33.5106 431.5 34.9124 432.102 35.9739 433.091" stroke="#5D6A85" stroke-width="2"/>
<path d="M26.2044 424.206L31.186 422.162C31.6891 421.946 32.2586 421.946 32.7617 422.162L37.7624 424.206C38.6095 424.569 39.1048 425.464 38.9328 426.369C38.1678 430.397 36.3764 436 31.9738 436C27.5713 436 25.799 430.397 25.034 426.369C24.862 425.464 25.3572 424.569 26.2044 424.206Z" stroke="#5D6A85" stroke-width="2"/>
<defs>
<clipPath id="clip0_2540_139664">
<rect width="32" height="32" fill="white" transform="translate(16 16)"/>
</clipPath>
<clipPath id="clip1_2540_139664">
<rect width="16" height="16" fill="white" transform="translate(24 181)"/>
</clipPath>
</defs>
</svg>
